# xmcd
#
# Track frame offsets:
#	182
#	16222
#	30852
#	42245
#	58887
#	73810
#	83752
#	103220
#	120457
#	134357
#
# Disc length: 2005 seconds
#
# Revision: 8
# Processed by: cddbd v1.5.2PL0 Copyright (c) Steve Scherf et al.
# Submitted via: audiograbber 1.83.01
#
DISCID=8107d30a
DTITLE=America - Homecoming
DYEAR=1972
DGENRE=Pop
TTITLE0=Ventura Highway
TTITLE1=To Each His Own
TTITLE2=Don't Cross The River
TTITLE3=Moon Song
TTITLE4=Only In Your Heart
TTITLE5=Till The Sun Comes Up Again
TTITLE6=Cornwall Blank
TTITLE7=Head and Heart
TTITLE8=California Revisited
TTITLE9=Saturn Nights
EXTD=ID3G:   2
EXTT0=
EXTT1=
EXTT2=
EXTT3=
EXTT4=
EXTT5=
EXTT6=
EXTT7=
EXTT8=
EXTT9=
PLAYORDER=
